<svg width="38" height="38" viewBox="0 0 38 38" xmlns="http://www.w3.org/2000/svg"><title>social-media</title><g fill="#3AC7D8" fill-rule="evenodd"><path d="M18.908 22.436c2.023 0 3.673-1.647 3.673-3.672 0-.8-.26-1.537-.693-2.14-.667-.925-1.752-1.532-2.977-1.532-1.226 0-2.31.606-2.978 1.53-.434.604-.694 1.342-.695 2.14-.002 2.026 1.647 3.674 3.67 3.674zM26.926 14.272v-3.536l-.46.002-3.076.01.01 3.536"/><path d="M18.91.422C8.794.422.566 8.65.566 18.764c0 10.113 8.228 18.342 18.342 18.342 10.11 0 18.34-8.23 18.34-18.342C37.25 8.65 29.023.422 18.91.422zm10.43 16.202v8.54c0 2.225-1.81 4.033-4.032 4.033h-12.8c-2.223 0-4.03-1.808-4.03-4.033V12.364c0-2.223 1.807-4.03 4.03-4.03h12.8c2.223 0 4.032 1.807 4.032 4.03v4.26z"/><path d="M24.614 18.764c0 3.145-2.56 5.706-5.705 5.706-3.148 0-5.706-2.56-5.706-5.706 0-.757.15-1.48.42-2.14h-3.115v8.54c0 1.104.895 1.998 1.998 1.998h12.8c1.1 0 1.998-.894 1.998-1.998v-8.54H24.19c.272.66.424 1.383.424 2.14z"/></g></svg>