<svg width="38" height="38" viewBox="0 0 38 38" xmlns="http://www.w3.org/2000/svg"><title>social-media-2</title><path d="M18.838.422C8.724.422.496 8.65.496 18.764c0 10.113 8.228 18.342 18.342 18.342 10.113 0 18.342-8.23 18.342-18.342C37.18 8.65 28.952.422 18.838.422zm6.2 27.084c-.85.4-1.62.684-2.315.846-.69.16-1.436.242-2.24.242-.91 0-1.45-.115-2.15-.345-.7-.232-1.298-.563-1.793-.986-.496-.426-.837-.88-1.03-1.36-.19-.48-.286-1.176-.286-2.088v-6.994h-2.71v-2.825c.783-.254 1.69-.618 2.25-1.093.56-.477 1.007-1.046 1.343-1.713.34-.663.573-1.512.7-2.54h2.837v4.612h4.61v3.56h-4.61v5.114c0 1.156-.015 1.825.108 2.153.123.324.427.663.76.86.443.263.944.396 1.513.396 1.01 0 2.015-.327 3.012-.984v3.144h.002z" fill="#3AC7D8" fill-rule="evenodd"/></svg>