<svg width="38" height="38" viewBox="0 0 38 38" xmlns="http://www.w3.org/2000/svg"><title>social-media-1</title><path d="M18.768.422C8.654.422.426 8.65.426 18.764c0 10.113 8.228 18.342 18.342 18.342 10.112 0 18.34-8.23 18.34-18.342C37.11 8.65 28.883.422 18.77.422zm8.182 14.144c.008.182.012.365.012.548 0 5.58-4.245 12.01-12.012 12.01-2.384 0-4.603-.697-6.47-1.895.33.038.665.058 1.006.058 1.978 0 3.798-.676 5.243-1.807-1.848-.033-3.407-1.254-3.945-2.932.258.05.523.076.794.076.384 0 .758-.05 1.112-.147-1.932-.387-3.386-2.093-3.386-4.14v-.052c.57.315 1.22.506 1.912.527-1.132-.756-1.878-2.05-1.878-3.513 0-.775.208-1.5.57-2.124 2.083 2.554 5.195 4.235 8.702 4.412-.072-.31-.108-.63-.108-.963 0-2.33 1.89-4.22 4.22-4.22 1.215 0 2.31.51 3.082 1.33.963-.188 1.864-.538 2.682-1.023-.318.986-.985 1.813-1.86 2.336.856-.102 1.672-.328 2.426-.664-.563.845-1.28 1.59-2.104 2.182z" fill="#3AC7D8" fill-rule="evenodd"/></svg>